# xmcd
# Track frame offsets:
# 150
# 14685
# 27058
# 41698
# 56753
# 70087
# 85593
# 100595
# 111512
# 123205
# 143192
# 155390
# 166265
# 177856
# 191164
# 205371
# 221311
# 238330
#
# Disc length: 3387 seconds
# Revision: 0
# Processed by: cddbd v1.5.1PL0 Copyright (c) Steve Scherf et al.
# Submitted via: VisiTrax 2.9.10.228 - For more info visit www.synapsa.com
#
DISCID=f90d3912
DTITLE=Chester, Johnny - Best of Johnny Chester Disc 1
DYEAR=1900
DGENRE=
TTITLE0=She's My Kind of Woman
TTITLE1=Let's Build A LoveTogether
TTITLE2=Once I Was A Truck Drivin' Man
TTITLE3=One In The Middle of Lonely
TTITLE4=Gwen (Congratulations)
TTITLE5=Nowhere In Particular
TTITLE6=Glory Glory
TTITLE7=Worlds Greatest Mum
TTITLE8=Kawliga
TTITLE9=My Ding A Ling
TTITLE10=Midnight Bus
TTITLE11=Lonely Man Like Me
TTITLE12=Shame and Scandal
TTITLE13=Ready Mix Revenge
TTITLE14=My Special Angel
TTITLE15=Highway 31
TTITLE16=Gotta Get Back To Tamworth
TTITLE17=Sally On Sunday
EXTD=
EXTT0=
EXTT1=
EXTT2=
EXTT3=
EXTT4=
EXTT5=
EXTT6=
EXTT7=
EXTT8=
EXTT9=
EXTT10=
EXTT11=
EXTT12=
EXTT13=
EXTT14=
EXTT15=
EXTT16=
EXTT17=
PLAYORDER=
